<?xml version="1.0" standalone="no"?>
<!DOCTYPE svg PUBLIC "-//W3C//DTD SVG 20010904//EN"
 "http://www.w3.org/TR/2001/REC-SVG-20010904/DTD/svg10.dtd">
<svg version="1.0" xmlns="http://www.w3.org/2000/svg"
 width="200.000000pt" height="200.000000pt" viewBox="0 0 200.000000 200.000000"
 preserveAspectRatio="xMidYMid meet">
<metadata>
Created by potrace 1.11, written by Peter Selinger 2001-2013
</metadata>
<g transform="translate(0.000000,200.000000) scale(0.100000,-0.100000)"
fill="#000000" stroke="none">
<path d="M993 1681 c319 -7 308 -3 306 -95 l-2 -51 -6 47 c-13 89 -8 88 -298
88 -147 0 -262 -4 -273 -10 -27 -14 -40 -64 -35 -133 4 -58 4 -59 -5 -17 -15
75 -12 115 11 144 11 14 16 26 10 26 -6 0 -18 -14 -27 -32 -13 -25 -15 -47 -9
-112 14 -170 84 -476 136 -595 35 -83 42 -86 191 -86 129 0 130 0 153 27 44
52 115 290 155 521 26 152 26 224 0 257 l-19 25 -283 1 -283 0 278 -5z m-260
-76 c-3 -9 -8 -14 -10 -11 -3 3 -2 9 2 15 9 16 15 13 8 -4z m386 -51 c7 5 8 1
4 -10 -3 -10 -2 -15 3 -12 5 4 9 -9 9 -27 0 -18 -2 -33 -5 -33 -3 0 -11 0 -17
-1 -17 -1 -17 -21 0 -21 17 0 39 -37 27 -45 -6 -4 -8 -11 -4 -16 3 -5 10 -7
15 -4 17 11 22 -26 5 -41 -9 -8 -11 -9 -6 -2 16 20 12 28 -16 28 -23 0 -26 3
-22 25 6 30 2 32 -12 4 -9 -15 -8 -24 1 -35 6 -8 7 -14 1 -14 -22 0 -35 30
-23 56 14 32 14 39 -1 27 -7 -6 -26 -13 -43 -17 l-30 -8 30 23 c36 27 55 45
38 35 -7 -4 -13 -2 -13 4 0 6 -4 9 -9 6 -4 -3 -17 1 -27 10 -18 14 -18 15 6 8
32 -10 60 -8 73 5 7 7 1 12 -17 17 -25 6 -25 7 -9 20 17 13 17 14 -2 8 -20 -6
-20 -5 -1 10 14 11 22 13 27 5 4 -6 12 -9 18 -5z m-209 -5 c0 -5 -4 -7 -10 -4
-5 3 -10 1 -10 -4 0 -6 5 -11 11 -11 5 0 7 -5 4 -10 -4 -6 -10 -8 -15 -5 -22
13 -17 -15 5 -29 15 -10 26 -12 30 -6 3 6 12 10 18 10 7 0 3 -7 -7 -15 -10 -8
-23 -12 -27 -9 -18 11 -8 -9 14 -27 l22 -18 -22 -1 c-13 0 -23 5 -23 10 0 6
-4 10 -10 10 -11 0 -1 -32 13 -41 12 -8 -1 -49 -15 -49 -5 0 -7 7 -4 16 7 19
-10 54 -27 53 -9 0 -9 -2 1 -6 6 -2 12 -13 12 -24 0 -18 -10 -23 -38 -20 -10
2 -12 -4 -7 -21 7 -23 7 -23 -9 -3 -14 18 -14 21 4 36 10 9 17 19 14 22 -9 9
16 47 31 47 8 0 15 5 15 11 0 6 -6 9 -14 6 -19 -7 -27 39 -13 70 10 23 57 34
57 12z m86 -8 c0 -11 -4 -17 -8 -15 -10 7 -10 34 0 34 4 0 8 -9 8 -19z m-205
-64 c-10 -9 -11 -8 -5 6 3 10 9 15 12 12 3 -3 0 -11 -7 -18z m196 1 c-3 -8 -6
-5 -6 6 -1 11 2 17 5 13 3 -3 4 -12 1 -19z m200 0 c-3 -8 -6 -5 -6 6 -1 11 2
17 5 13 3 -3 4 -12 1 -19z m100 -15 c-3 -10 -5 -4 -5 12 0 17 2 24 5 18 2 -7
2 -21 0 -30z m-590 -45 c-3 -7 -5 -2 -5 12 0 14 2 19 5 13 2 -7 2 -19 0 -25z
m300 -3 c0 -8 -4 -15 -9 -15 -4 0 -8 7 -8 15 0 8 4 15 8 15 5 0 9 -7 9 -15z
m280 -27 c-3 -7 -5 -2 -5 12 0 14 2 19 5 13 2 -7 2 -19 0 -25z m-570 -30 c-3
-7 -5 -2 -5 12 0 14 2 19 5 13 2 -7 2 -19 0 -25z m286 -150 c2 -140 1 -145
-18 -140 -11 3 -14 7 -7 10 9 3 12 42 12 145 0 77 2 138 5 135 3 -3 6 -70 8
-150z m274 130 c-3 -8 -6 -5 -6 6 -1 11 2 17 5 13 3 -3 4 -12 1 -19z m-301
-136 c3 -51 2 -92 -4 -96 -5 -3 -12 33 -15 85 -3 50 -11 97 -18 106 -25 29
-18 45 7 20 21 -22 25 -37 30 -115z m171 118 c7 -8 12 -24 12 -35 -1 -16 -2
-16 -6 -3 -5 21 -43 46 -66 42 -9 -1 -15 1 -12 6 8 13 59 6 72 -10z m-420 -12
c-3 -8 -6 -5 -6 6 -1 11 2 17 5 13 3 -3 4 -12 1 -19z m166 15 c-7 -2 -21 -2
-30 0 -10 3 -4 5 12 5 17 0 24 -2 18 -5z m226 -70 c7 -16 6 -24 -4 -33 -11 -9
-12 -7 -8 8 3 13 -5 27 -26 44 -16 14 -27 28 -24 31 8 9 50 -25 62 -50z m140
-30 c-10 -48 -23 -91 -27 -95 -5 -5 1 35 12 87 12 52 24 95 28 95 3 0 -3 -39
-13 -87z m-319 -13 c0 -25 -4 -30 -22 -29 -17 1 -19 2 -5 6 10 3 17 14 17 29
0 13 2 24 5 24 3 0 5 -13 5 -30z m140 -15 c-12 -14 -7 -38 21 -112 5 -14 5
-23 -1 -23 -5 0 -14 19 -20 43 -6 23 -15 49 -19 58 -7 11 -4 21 7 33 20 20 29
21 12 1z m-242 -247 c12 -21 19 -38 17 -38 -7 0 -45 63 -45 74 0 12 1 10 28
-36z m297 -58 c-10 -11 -30 -19 -44 -19 -21 1 -22 2 -6 6 11 3 29 12 40 19 27
20 31 17 10 -6z m-250 0 c3 -5 1 -10 -4 -10 -6 0 -11 5 -11 10 0 6 2 10 4 10
3 0 8 -4 11 -10z"/>
<path d="M268 650 c-3 -77 -2 -80 20 -80 18 0 22 6 22 30 0 23 5 30 19 30 12
0 25 -12 33 -30 10 -23 19 -30 42 -30 l29 0 -21 23 c-26 28 -28 43 -6 51 10 4
14 15 12 33 -4 35 -38 53 -100 53 l-46 0 -4 -80z m96 44 c30 -12 18 -34 -19
-34 -28 0 -35 4 -35 20 0 20 22 26 54 14z"/>
<path d="M495 719 c-51 -29 -61 -90 -22 -127 25 -24 84 -30 117 -12 40 22 45
97 7 128 -22 18 -79 24 -102 11z m75 -39 c23 -23 24 -33 10 -61 -12 -22 -59
-26 -78 -7 -18 18 -15 65 6 77 25 15 40 13 62 -9z"/>
<path d="M660 651 l0 -79 75 -4 c66 -3 75 -1 75 15 0 14 -9 17 -55 17 -49 0
-55 2 -55 21 0 18 5 21 35 17 27 -3 35 0 35 12 0 12 -8 15 -35 12 -31 -4 -35
-1 -35 18 0 21 3 22 55 18 48 -4 55 -2 55 14 0 16 -9 18 -75 18 l-75 0 0 -79z"/>
<path d="M832 718 c3 -7 16 -43 29 -80 21 -59 27 -68 48 -68 13 0 22 3 19 6
-4 3 1 27 10 52 l16 47 14 -34 c7 -19 14 -43 15 -53 1 -11 9 -18 22 -18 16 0
25 13 42 63 12 34 25 70 28 80 5 12 2 17 -12 17 -14 0 -24 -12 -33 -41 -8 -22
-17 -42 -21 -44 -4 -3 -13 15 -20 40 -10 35 -18 45 -34 45 -16 0 -24 -10 -33
-47 -14 -51 -25 -49 -39 7 -7 26 -15 36 -32 38 -17 3 -22 0 -19 -10z"/>
<path d="M1110 651 l0 -79 75 -4 c66 -3 75 -1 75 15 0 14 -9 17 -55 17 -49 0
-55 2 -55 21 0 18 5 21 35 17 27 -3 35 0 35 12 0 12 -8 15 -35 12 -31 -4 -35
-1 -35 18 0 20 4 22 50 18 42 -2 50 0 50 15 0 14 -10 17 -70 17 l-70 0 0 -79z"/>
<path d="M1358 722 c-10 -2 -18 -7 -18 -12 0 -5 8 -11 18 -13 13 -4 12 -5 -5
-6 -18 -1 -22 -6 -21 -28 2 -15 10 -28 20 -31 16 -4 16 -7 2 -33 -13 -26 -13
-29 1 -29 8 0 24 15 35 33 l20 32 0 -32 c0 -23 5 -33 15 -33 10 0 15 11 16 33
l0 32 16 -32 c10 -20 24 -33 35 -33 17 0 17 2 4 29 -14 26 -14 30 -1 35 25 9
19 54 -7 59 l-23 4 23 2 c23 1 31 20 10 22 -32 4 -125 4 -140 1z m85 -29 c-7
-2 -21 -2 -30 0 -10 3 -4 5 12 5 17 0 24 -2 18 -5z m-33 -33 c0 -5 -11 -10
-25 -10 -14 0 -25 5 -25 10 0 6 11 10 25 10 14 0 25 -4 25 -10z m75 0 c4 -6
-5 -10 -19 -10 -14 0 -26 5 -26 10 0 6 9 10 19 10 11 0 23 -4 26 -10z"/>
<path d="M1603 722 l-53 -3 0 -59 c0 -32 -3 -66 -6 -75 -5 -13 -2 -16 12 -13
14 2 20 13 22 43 l4 40 12 -30 c8 -18 10 -34 4 -41 -6 -9 1 -12 27 -12 23 0
33 4 28 11 -4 7 -6 26 -4 43 2 27 -2 33 -24 38 -14 4 -30 4 -35 1 -6 -4 -10
-1 -10 4 0 6 18 11 40 11 l40 0 0 -43 c0 -47 13 -67 45 -67 19 1 19 1 2 14
-15 12 -16 15 -2 26 11 9 15 29 14 65 -2 60 10 55 -116 47z m35 -29 c-10 -2
-28 -2 -40 0 -13 2 -5 4 17 4 22 1 32 -1 23 -4z m49 -15 c-3 -8 -6 -5 -6 6 -1
11 2 17 5 13 3 -3 4 -12 1 -19z m-60 -60 c-3 -8 -6 -5 -6 6 -1 11 2 17 5 13 3
-3 4 -12 1 -19z"/>
<path d="M400 454 c0 -21 5 -24 40 -24 35 0 40 3 40 23 0 19 -5 22 -40 23 -36
1 -40 -2 -40 -22z m60 -4 c0 -5 -9 -10 -20 -10 -11 0 -20 5 -20 10 0 6 9 10
20 10 11 0 20 -4 20 -10z"/>
<path d="M533 454 c-6 -14 -9 -41 -6 -59 6 -35 6 -35 59 -35 30 0 54 5 54 10
0 6 -5 10 -11 10 -10 0 -8 25 6 62 3 7 -6 18 -20 25 -14 6 -25 7 -25 2 0 -5
-7 -9 -15 -9 -8 0 -15 5 -15 10 0 19 -15 10 -27 -16z m77 -33 c0 -9 -4 -22 -9
-29 -6 -10 -10 -7 -15 12 -3 14 -11 26 -16 26 -6 0 -6 -9 0 -24 7 -18 5 -26
-6 -30 -11 -4 -14 4 -14 33 0 36 1 37 30 33 19 -3 30 -10 30 -21z"/>
<path d="M687 473 c-11 -3 -16 -11 -13 -19 3 -8 0 -14 -7 -14 -8 0 -7 -3 2 -9
12 -8 12 -12 2 -25 -8 -9 -9 -16 -3 -16 5 0 13 -10 17 -22 8 -22 8 -22 12 5 2
15 9 27 15 27 6 0 6 6 -2 15 -8 9 -9 15 -2 15 6 0 14 -4 17 -10 3 -5 11 -10
17 -10 7 0 6 6 -2 15 -7 8 -19 15 -27 15 -10 0 -12 6 -8 20 3 11 5 19 3 19 -2
-1 -11 -3 -21 -6z"/>
<path d="M761 472 c-1 -9 -8 -11 -21 -7 -11 3 -20 2 -20 -4 0 -5 9 -13 20 -16
29 -9 25 -34 -7 -47 l-28 -12 28 -4 c17 -2 27 -10 28 -20 0 -10 4 -7 8 8 5 14
5 45 1 70 -4 25 -8 39 -9 32z"/>
<path d="M819 468 c0 -7 -1 -34 -2 -60 l-2 -47 58 2 c50 1 56 3 41 14 -14 10
-15 16 -6 25 16 16 15 28 -3 28 -21 0 -19 18 3 23 16 4 16 5 0 6 -10 0 -18 6
-18 11 0 6 -9 5 -21 -2 -17 -10 -23 -10 -26 0 -3 6 -9 12 -14 12 -5 0 -9 -6
-10 -12z m51 -27 c0 -5 -7 -11 -15 -15 -15 -5 -20 5 -8 17 9 10 23 9 23 -2z
m30 -25 c0 -11 -19 -15 -25 -6 -3 5 1 10 9 10 9 0 16 -2 16 -4z m-33 -23 c2
-6 -3 -13 -12 -16 -10 -5 -15 0 -15 14 0 21 21 22 27 2z"/>
<path d="M1066 464 c-9 -24 -7 -54 4 -54 7 0 7 -6 0 -19 -14 -26 -13 -36 3
-24 13 11 47 13 47 4 0 -3 11 -7 25 -7 24 -2 25 1 25 53 l0 55 -46 -7 c-32 -4
-44 -3 -39 4 3 6 2 11 -3 11 -6 0 -13 -7 -16 -16z m54 -24 c0 -5 -4 -10 -10
-10 -5 0 -10 5 -10 10 0 6 5 10 10 10 6 0 10 -4 10 -10z m38 -22 c-2 -18 -7
-33 -13 -33 -5 0 -11 15 -13 33 -3 24 1 32 13 32 12 0 16 -8 13 -32z m-38 -18
c0 -5 -2 -10 -4 -10 -3 0 -8 5 -11 10 -3 6 -1 10 4 10 6 0 11 -4 11 -10z"/>
<path d="M1211 458 c-5 -13 -5 -43 -1 -68 l7 -45 2 43 c0 24 6 42 12 42 8 0 9
-11 5 -32 -5 -31 -5 -32 10 -13 9 12 12 30 9 43 -4 15 -2 21 5 17 14 -9 13
-58 -2 -73 -9 -9 -8 -12 5 -12 13 0 17 10 18 48 l1 47 10 -43 c5 -23 13 -40
18 -37 5 3 6 15 1 28 -5 14 -5 30 0 40 9 14 5 17 -21 17 -17 0 -30 5 -30 13 0
6 -9 1 -20 -13 -19 -24 -19 -24 -13 -2 3 12 2 22 -1 22 -4 0 -10 -10 -15 -22z"/>
<path d="M1345 449 c-5 -22 -3 -34 6 -40 11 -6 11 -11 1 -21 -20 -20 -14 -33
7 -14 13 12 20 14 23 5 2 -7 18 -13 36 -14 l32 -2 0 55 0 55 -40 -7 c-25 -4
-40 -2 -40 4 0 23 -19 7 -25 -21z m55 -9 c0 -5 -4 -10 -10 -10 -5 0 -10 5 -10
10 0 6 5 10 10 10 6 0 10 -4 10 -10z m40 -25 c0 -19 -4 -35 -10 -35 -5 0 -10
16 -10 35 0 19 5 35 10 35 6 0 10 -16 10 -35z m-40 -15 c0 -5 -2 -10 -4 -10
-3 0 -8 5 -11 10 -3 6 -1 10 4 10 6 0 11 -4 11 -10z"/>
<path d="M1496 464 c-11 -7 -16 -17 -13 -21 4 -4 15 1 24 10 22 21 14 30 -11
11z"/>
<path d="M1548 463 c12 -2 30 -2 40 0 9 3 -1 5 -23 4 -22 0 -30 -2 -17 -4z"/>
<path d="M1492 427 c-11 -13 -13 -20 -5 -25 6 -4 13 -18 16 -32 3 -16 5 -9 6
19 1 35 4 42 17 37 9 -3 20 -6 25 -6 14 0 11 -48 -3 -53 -7 -3 -3 -6 10 -6 18
-1 22 4 22 29 0 17 5 30 10 30 6 0 10 4 10 9 0 5 -21 11 -46 13 -34 2 -49 -1
-62 -15z"/>
<path d="M380 390 l0 -30 60 0 60 0 0 30 c0 27 -3 30 -29 30 -25 0 -30 -5 -34
-27 l-4 -28 -2 28 c-1 22 -6 27 -26 27 -21 0 -25 -5 -25 -30z m40 0 c0 -5 -4
-10 -10 -10 -5 0 -10 5 -10 10 0 6 5 10 10 10 6 0 10 -4 10 -10z m60 0 c0 -5
-4 -10 -10 -10 -5 0 -10 5 -10 10 0 6 5 10 10 10 6 0 10 -4 10 -10z"/>
<path d="M980 410 c0 -5 5 -10 10 -10 6 0 10 5 10 10 0 6 -4 10 -10 10 -5 0
-10 -4 -10 -10z"/>
</g>
</svg>
